<svg xmlns="http://www.w3.org/2000/svg" width="800" height="137" viewBox="0 0 800 137" version="1.1"><path d="M 144.535 54.250 L 145.085 83.500 140.991 75.672 C 137.052 68.140, 131.222 54.398, 125.582 39.350 L 122.901 32.199 114.893 31.491 C 110.489 31.101, 106.655 31.011, 106.375 31.292 C 104.738 32.928, 101.619 102.206, 102.708 112.722 C 103.308 118.517, 103.234 118.465, 112.250 119.490 L 118 120.144 118.065 90.322 L 118.130 60.500 126.315 77.015 C 130.817 86.099, 136.797 98.527, 139.604 104.633 L 144.709 115.736 151.433 116.456 C 155.131 116.852, 158.459 116.874, 158.829 116.505 C 159.198 116.136, 159.658 95.687, 159.850 71.062 L 160.201 26.290 156.975 25.645 C 155.201 25.290, 151.553 25, 148.868 25 L 143.985 25 144.535 54.250 M 254.183 26.902 C 243.582 30.563, 237.027 40.251, 237.010 52.283 C 236.993 63.616, 242.831 71.831, 258.823 82.983 C 265.185 87.419, 270 93.761, 270 97.703 C 270 98.818, 269.067 100.916, 267.927 102.365 C 262.991 108.641, 252.984 103.799, 247.430 92.447 L 244.800 87.072 238.900 90.050 C 235.655 91.688, 233 93.595, 233 94.287 C 233 96.446, 240.320 108.071, 244.209 112.087 C 250.253 118.330, 255.071 120.265, 263.506 119.840 C 269.372 119.543, 271.592 118.922, 275.571 116.462 C 282.572 112.133, 286.342 105.641, 286.826 97.079 C 287.472 85.637, 284.349 80.927, 269.190 70.482 C 258.449 63.081, 255.077 59.177, 254.361 53.311 C 253.425 45.653, 259.955 38.292, 265.459 40.799 C 269.661 42.714, 271.520 48.311, 270.152 54.931 C 269.535 57.919, 269.135 60.442, 269.265 60.540 C 269.394 60.637, 273.008 61.881, 277.295 63.305 L 285.090 65.893 286.167 63.196 C 286.758 61.713, 287.472 57.249, 287.751 53.276 C 288.202 46.872, 287.954 45.426, 285.569 40.551 C 282.257 33.781, 276.190 28.431, 269.612 26.477 C 263.229 24.582, 260.698 24.652, 254.183 26.902 M 348.455 28.004 C 334.843 34.742, 326.769 52.759, 326.722 76.500 C 326.679 98.432, 332.660 112.269, 344.704 118.099 C 354.212 122.702, 364.790 120.402, 372.289 112.102 C 380.264 103.274, 384.702 90.630, 385.666 73.982 C 386.626 57.400, 382.972 43.062, 375.532 34.220 C 369.275 26.784, 356.735 23.905, 348.455 28.004 M 507.477 48.691 C 506.835 68.222, 508.008 116.406, 509.150 117.455 C 509.343 117.632, 513.100 118.089, 517.500 118.470 L 525.500 119.164 525.264 73.429 C 525.134 48.275, 524.909 27.595, 524.764 27.475 C 524.619 27.355, 520.838 26.947, 516.363 26.569 L 508.226 25.882 507.477 48.691 M 562.764 26.940 C 549.244 31.286, 539.741 48.315, 536.939 73.215 C 534.190 97.647, 542.327 115.240, 558.130 119.031 C 568.945 121.626, 579.691 117.710, 585.081 109.211 C 588.340 104.072, 591.490 96.236, 592.535 90.668 L 593.223 87 588.236 87 C 585.494 87, 581.919 86.734, 580.292 86.408 C 577.432 85.836, 577.260 86.023, 575.057 92.065 C 572.283 99.671, 569.215 103, 564.980 103 C 560.308 103, 558.032 101.320, 555.720 96.164 C 549.442 82.167, 557.727 44.299, 567.312 43.181 C 569.651 42.909, 570.274 43.411, 571.633 46.664 C 572.506 48.754, 573.461 53.960, 573.753 58.232 C 574.246 65.419, 574.451 66, 576.496 66 C 577.712 66, 581.517 66.294, 584.953 66.653 L 591.199 67.306 590.506 59.403 C 588.958 41.765, 585.059 32.150, 577.966 28.482 C 574.204 26.537, 566.461 25.751, 562.764 26.940 M 606.468 29.318 C 605.399 35.016, 606.351 115.760, 607.500 116.850 C 608.050 117.372, 612.233 118.118, 616.796 118.507 L 625.092 119.216 624.297 116.358 C 623.860 114.786, 623.502 94.038, 623.501 70.250 L 623.500 27 619.890 27 C 617.904 27, 614.222 26.718, 611.709 26.374 L 607.138 25.747 606.468 29.318 M 43.033 69.622 C 37.405 92.655, 32.337 113.430, 31.772 115.788 C 31.206 118.147, 30.914 120.230, 31.122 120.418 C 31.330 120.606, 35.357 121.072, 40.072 121.455 L 48.644 122.150 50.934 110.133 L 53.223 98.116 58.362 97.481 C 61.188 97.132, 65.507 96.993, 67.961 97.173 L 72.422 97.500 73.725 105.931 C 74.442 110.568, 75.155 114.489, 75.311 114.644 C 75.907 115.240, 93.141 116.580, 93.456 116.054 C 93.639 115.749, 93.133 112.350, 92.331 108.500 C 91.529 104.650, 87.790 85.376, 84.021 65.668 C 80.252 45.960, 77.018 29.686, 76.834 29.504 C 76.651 29.322, 71.272 28.851, 64.883 28.458 L 53.266 27.745 43.033 69.622 M 187.557 29.122 C 187.293 29.880, 183.635 44.675, 179.427 62 C 175.219 79.325, 170.298 99.350, 168.492 106.500 C 166.686 113.650, 165.499 119.809, 165.854 120.186 C 166.209 120.563, 170.278 121.013, 174.895 121.186 L 183.290 121.500 185.475 110.253 C 186.677 104.067, 187.974 98.692, 188.357 98.310 C 188.740 97.927, 193.042 97.423, 197.917 97.190 L 206.780 96.766 207.944 104.133 C 208.584 108.185, 209.199 112.155, 209.309 112.956 C 209.531 114.559, 213.475 115.556, 222.250 116.226 C 227.115 116.597, 228 116.409, 228 115.006 C 228 114.094, 226.667 106.632, 225.037 98.424 C 223.407 90.216, 219.774 71.575, 216.963 57 C 214.153 42.425, 211.549 30.200, 211.177 29.834 C 210.804 29.467, 205.445 28.847, 199.268 28.456 C 190.152 27.879, 187.945 28.005, 187.557 29.122 M 426 28.655 C 402.286 30.925, 400.109 31.270, 399.451 32.863 C 399.079 33.763, 398.538 52.992, 398.249 75.593 L 397.723 116.686 404.008 117.343 C 407.465 117.704, 411.352 118, 412.647 118 L 415 118 415 100.601 L 415 83.201 427.595 82.475 L 440.189 81.749 439.523 77.124 C 439.156 74.581, 438.599 71.423, 438.284 70.106 L 437.711 67.712 426.269 68.365 L 414.827 69.019 415.164 57.590 C 415.349 51.304, 415.751 45.912, 416.057 45.607 C 416.364 45.302, 422.326 44.747, 429.307 44.374 L 442 43.695 442 35.848 L 442 28 435.750 28.160 C 432.313 28.248, 427.925 28.471, 426 28.655 M 473.886 29.126 C 468.598 29.594, 461.848 30.324, 458.886 30.748 L 453.500 31.519 452.875 39.010 C 451.689 53.211, 450.658 115.671, 451.600 116.253 C 452.105 116.565, 456.289 117.149, 460.896 117.551 L 469.274 118.282 468.887 100.891 L 468.500 83.500 481 82.621 C 487.875 82.138, 493.634 81.629, 493.797 81.491 C 493.960 81.353, 493.533 78.197, 492.848 74.479 L 491.602 67.718 480.301 68.363 L 469 69.009 469 57.153 L 469 45.296 477.250 44.654 C 481.788 44.301, 487.863 44.009, 490.750 44.006 L 496 44 496 36 L 496 28 489.750 28.137 C 486.313 28.213, 479.174 28.658, 473.886 29.126 M 652.329 36.126 C 637.024 98.421, 631.818 120.145, 632.128 120.424 C 632.333 120.609, 636.387 121.075, 641.137 121.460 L 649.774 122.161 652.016 110.136 L 654.257 98.112 659.378 97.479 C 662.195 97.131, 666.524 96.993, 668.998 97.173 L 673.497 97.500 674.869 106.183 L 676.240 114.867 682.870 115.469 C 686.517 115.800, 690.772 116.276, 692.327 116.526 C 694.955 116.949, 695.114 116.787, 694.580 114.240 C 694.264 112.733, 691.281 97.325, 687.950 80 C 684.620 62.675, 681.090 44.334, 680.106 39.242 C 679.123 34.151, 678.134 29.802, 677.909 29.578 C 677.684 29.355, 672.299 28.853, 665.943 28.462 L 654.386 27.752 652.329 36.126 M 707.344 30.611 C 706.306 34.542, 706.297 94.158, 707.334 106.120 L 708.167 115.741 714.707 116.411 C 720.347 116.989, 733.260 115.730, 745.750 113.384 C 748.358 112.895, 748.585 110.828, 746.897 102.957 C 745.815 97.909, 745.738 97.826, 742.647 98.361 C 740.916 98.661, 735.788 99.211, 731.250 99.582 L 723 100.258 723.063 75.879 C 723.098 62.471, 723.484 46.550, 723.921 40.500 C 724.359 34.450, 724.590 29.347, 724.436 29.161 C 724.281 28.974, 720.544 28.574, 716.131 28.272 L 708.108 27.722 707.344 30.611 M 354.328 42.002 C 347.182 44.883, 341.858 67.110, 344.055 84.892 C 345.691 98.133, 349.503 105, 355.220 105 C 361.421 105, 366.171 95.626, 368.157 79.470 C 370.181 62.996, 366.967 46.892, 360.791 42.566 C 358.291 40.815, 357.455 40.742, 354.328 42.002 M 194.588 64.396 C 192.496 74.693, 191.037 83.371, 191.347 83.680 C 191.656 83.990, 194.773 83.936, 198.274 83.561 L 204.638 82.880 201.860 65.313 C 200.332 55.652, 198.927 47.281, 198.737 46.711 C 198.547 46.141, 196.680 54.100, 194.588 64.396 M 664.712 48 C 663.777 50.351, 658 79.711, 658 82.109 C 658 84.154, 658.303 84.224, 664.244 83.552 C 667.678 83.163, 670.636 82.698, 670.816 82.517 C 670.997 82.337, 669.831 74.159, 668.226 64.344 C 666.621 54.530, 665.040 47.175, 664.712 48 M 59.787 65.529 C 57.809 75.429, 56.681 83.303, 57.196 83.621 C 57.697 83.931, 60.829 83.868, 64.156 83.482 C 70.033 82.800, 70.191 82.704, 69.684 80.140 C 69.397 78.688, 68.143 70.862, 66.897 62.750 C 65.652 54.638, 64.330 48, 63.961 48 C 63.592 48, 61.714 55.888, 59.787 65.529" stroke="none" fill="#fcec3e" fill-rule="evenodd"/><path d="M -0 68.501 L -0 137.002 400.250 136.751 L 800.500 136.500 800.757 68.250 L 801.014 -0 400.507 -0 L 0 0 -0 68.501 M 0.473 69 C 0.473 106.675, 0.597 122.087, 0.750 103.250 C 0.902 84.412, 0.902 53.587, 0.750 34.750 C 0.597 15.912, 0.473 31.325, 0.473 69 M 144.535 54.250 L 145.085 83.500 140.991 75.672 C 137.052 68.140, 131.222 54.398, 125.582 39.350 L 122.901 32.199 114.893 31.491 C 110.489 31.101, 106.655 31.011, 106.375 31.292 C 104.738 32.928, 101.619 102.206, 102.708 112.722 C 103.308 118.517, 103.234 118.465, 112.250 119.490 L 118 120.144 118.065 90.322 L 118.130 60.500 126.315 77.015 C 130.817 86.099, 136.797 98.527, 139.604 104.633 L 144.709 115.736 151.433 116.456 C 155.131 116.852, 158.459 116.874, 158.829 116.505 C 159.198 116.136, 159.658 95.687, 159.850 71.062 L 160.201 26.290 156.975 25.645 C 155.201 25.290, 151.553 25, 148.868 25 L 143.985 25 144.535 54.250 M 254.183 26.902 C 243.582 30.563, 237.027 40.251, 237.010 52.283 C 236.993 63.616, 242.831 71.831, 258.823 82.983 C 265.185 87.419, 270 93.761, 270 97.703 C 270 98.818, 269.067 100.916, 267.927 102.365 C 262.991 108.641, 252.984 103.799, 247.430 92.447 L 244.800 87.072 238.900 90.050 C 235.655 91.688, 233 93.595, 233 94.287 C 233 96.446, 240.320 108.071, 244.209 112.087 C 250.253 118.330, 255.071 120.265, 263.506 119.840 C 269.372 119.543, 271.592 118.922, 275.571 116.462 C 282.572 112.133, 286.342 105.641, 286.826 97.079 C 287.472 85.637, 284.349 80.927, 269.190 70.482 C 258.449 63.081, 255.077 59.177, 254.361 53.311 C 253.425 45.653, 259.955 38.292, 265.459 40.799 C 269.661 42.714, 271.520 48.311, 270.152 54.931 C 269.535 57.919, 269.135 60.442, 269.265 60.540 C 269.394 60.637, 273.008 61.881, 277.295 63.305 L 285.090 65.893 286.167 63.196 C 286.758 61.713, 287.472 57.249, 287.751 53.276 C 288.202 46.872, 287.954 45.426, 285.569 40.551 C 282.257 33.781, 276.190 28.431, 269.612 26.477 C 263.229 24.582, 260.698 24.652, 254.183 26.902 M 348.455 28.004 C 334.843 34.742, 326.769 52.759, 326.722 76.500 C 326.679 98.432, 332.660 112.269, 344.704 118.099 C 354.212 122.702, 364.790 120.402, 372.289 112.102 C 380.264 103.274, 384.702 90.630, 385.666 73.982 C 386.626 57.400, 382.972 43.062, 375.532 34.220 C 369.275 26.784, 356.735 23.905, 348.455 28.004 M 507.477 48.691 C 506.835 68.222, 508.008 116.406, 509.150 117.455 C 509.343 117.632, 513.100 118.089, 517.500 118.470 L 525.500 119.164 525.264 73.429 C 525.134 48.275, 524.909 27.595, 524.764 27.475 C 524.619 27.355, 520.838 26.947, 516.363 26.569 L 508.226 25.882 507.477 48.691 M 562.764 26.940 C 549.244 31.286, 539.741 48.315, 536.939 73.215 C 534.190 97.647, 542.327 115.240, 558.130 119.031 C 568.945 121.626, 579.691 117.710, 585.081 109.211 C 588.340 104.072, 591.490 96.236, 592.535 90.668 L 593.223 87 588.236 87 C 585.494 87, 581.919 86.734, 580.292 86.408 C 577.432 85.836, 577.260 86.023, 575.057 92.065 C 572.283 99.671, 569.215 103, 564.980 103 C 560.308 103, 558.032 101.320, 555.720 96.164 C 549.442 82.167, 557.727 44.299, 567.312 43.181 C 569.651 42.909, 570.274 43.411, 571.633 46.664 C 572.506 48.754, 573.461 53.960, 573.753 58.232 C 574.246 65.419, 574.451 66, 576.496 66 C 577.712 66, 581.517 66.294, 584.953 66.653 L 591.199 67.306 590.506 59.403 C 588.958 41.765, 585.059 32.150, 577.966 28.482 C 574.204 26.537, 566.461 25.751, 562.764 26.940 M 606.468 29.318 C 605.399 35.016, 606.351 115.760, 607.500 116.850 C 608.050 117.372, 612.233 118.118, 616.796 118.507 L 625.092 119.216 624.297 116.358 C 623.860 114.786, 623.502 94.038, 623.501 70.250 L 623.500 27 619.890 27 C 617.904 27, 614.222 26.718, 611.709 26.374 L 607.138 25.747 606.468 29.318 M 43.033 69.622 C 37.405 92.655, 32.337 113.430, 31.772 115.788 C 31.206 118.147, 30.914 120.230, 31.122 120.418 C 31.330 120.606, 35.357 121.072, 40.072 121.455 L 48.644 122.150 50.934 110.133 L 53.223 98.116 58.362 97.481 C 61.188 97.132, 65.507 96.993, 67.961 97.173 L 72.422 97.500 73.725 105.931 C 74.442 110.568, 75.155 114.489, 75.311 114.644 C 75.907 115.240, 93.141 116.580, 93.456 116.054 C 93.639 115.749, 93.133 112.350, 92.331 108.500 C 91.529 104.650, 87.790 85.376, 84.021 65.668 C 80.252 45.960, 77.018 29.686, 76.834 29.504 C 76.651 29.322, 71.272 28.851, 64.883 28.458 L 53.266 27.745 43.033 69.622 M 187.557 29.122 C 187.293 29.880, 183.635 44.675, 179.427 62 C 175.219 79.325, 170.298 99.350, 168.492 106.500 C 166.686 113.650, 165.499 119.809, 165.854 120.186 C 166.209 120.563, 170.278 121.013, 174.895 121.186 L 183.290 121.500 185.475 110.253 C 186.677 104.067, 187.974 98.692, 188.357 98.310 C 188.740 97.927, 193.042 97.423, 197.917 97.190 L 206.780 96.766 207.944 104.133 C 208.584 108.185, 209.199 112.155, 209.309 112.956 C 209.531 114.559, 213.475 115.556, 222.250 116.226 C 227.115 116.597, 228 116.409, 228 115.006 C 228 114.094, 226.667 106.632, 225.037 98.424 C 223.407 90.216, 219.774 71.575, 216.963 57 C 214.153 42.425, 211.549 30.200, 211.177 29.834 C 210.804 29.467, 205.445 28.847, 199.268 28.456 C 190.152 27.879, 187.945 28.005, 187.557 29.122 M 426 28.655 C 402.286 30.925, 400.109 31.270, 399.451 32.863 C 399.079 33.763, 398.538 52.992, 398.249 75.593 L 397.723 116.686 404.008 117.343 C 407.465 117.704, 411.352 118, 412.647 118 L 415 118 415 100.601 L 415 83.201 427.595 82.475 L 440.189 81.749 439.523 77.124 C 439.156 74.581, 438.599 71.423, 438.284 70.106 L 437.711 67.712 426.269 68.365 L 414.827 69.019 415.164 57.590 C 415.349 51.304, 415.751 45.912, 416.057 45.607 C 416.364 45.302, 422.326 44.747, 429.307 44.374 L 442 43.695 442 35.848 L 442 28 435.750 28.160 C 432.313 28.248, 427.925 28.471, 426 28.655 M 473.886 29.126 C 468.598 29.594, 461.848 30.324, 458.886 30.748 L 453.500 31.519 452.875 39.010 C 451.689 53.211, 450.658 115.671, 451.600 116.253 C 452.105 116.565, 456.289 117.149, 460.896 117.551 L 469.274 118.282 468.887 100.891 L 468.500 83.500 481 82.621 C 487.875 82.138, 493.634 81.629, 493.797 81.491 C 493.960 81.353, 493.533 78.197, 492.848 74.479 L 491.602 67.718 480.301 68.363 L 469 69.009 469 57.153 L 469 45.296 477.250 44.654 C 481.788 44.301, 487.863 44.009, 490.750 44.006 L 496 44 496 36 L 496 28 489.750 28.137 C 486.313 28.213, 479.174 28.658, 473.886 29.126 M 652.329 36.126 C 637.024 98.421, 631.818 120.145, 632.128 120.424 C 632.333 120.609, 636.387 121.075, 641.137 121.460 L 649.774 122.161 652.016 110.136 L 654.257 98.112 659.378 97.479 C 662.195 97.131, 666.524 96.993, 668.998 97.173 L 673.497 97.500 674.869 106.183 L 676.240 114.867 682.870 115.469 C 686.517 115.800, 690.772 116.276, 692.327 116.526 C 694.955 116.949, 695.114 116.787, 694.580 114.240 C 694.264 112.733, 691.281 97.325, 687.950 80 C 684.620 62.675, 681.090 44.334, 680.106 39.242 C 679.123 34.151, 678.134 29.802, 677.909 29.578 C 677.684 29.355, 672.299 28.853, 665.943 28.462 L 654.386 27.752 652.329 36.126 M 707.344 30.611 C 706.306 34.542, 706.297 94.158, 707.334 106.120 L 708.167 115.741 714.707 116.411 C 720.347 116.989, 733.260 115.730, 745.750 113.384 C 748.358 112.895, 748.585 110.828, 746.897 102.957 C 745.815 97.909, 745.738 97.826, 742.647 98.361 C 740.916 98.661, 735.788 99.211, 731.250 99.582 L 723 100.258 723.063 75.879 C 723.098 62.471, 723.484 46.550, 723.921 40.500 C 724.359 34.450, 724.590 29.347, 724.436 29.161 C 724.281 28.974, 720.544 28.574, 716.131 28.272 L 708.108 27.722 707.344 30.611 M 354.328 42.002 C 347.182 44.883, 341.858 67.110, 344.055 84.892 C 345.691 98.133, 349.503 105, 355.220 105 C 361.421 105, 366.171 95.626, 368.157 79.470 C 370.181 62.996, 366.967 46.892, 360.791 42.566 C 358.291 40.815, 357.455 40.742, 354.328 42.002 M 194.588 64.396 C 192.496 74.693, 191.037 83.371, 191.347 83.680 C 191.656 83.990, 194.773 83.936, 198.274 83.561 L 204.638 82.880 201.860 65.313 C 200.332 55.652, 198.927 47.281, 198.737 46.711 C 198.547 46.141, 196.680 54.100, 194.588 64.396 M 664.712 48 C 663.777 50.351, 658 79.711, 658 82.109 C 658 84.154, 658.303 84.224, 664.244 83.552 C 667.678 83.163, 670.636 82.698, 670.816 82.517 C 670.997 82.337, 669.831 74.159, 668.226 64.344 C 666.621 54.530, 665.040 47.175, 664.712 48 M 59.787 65.529 C 57.809 75.429, 56.681 83.303, 57.196 83.621 C 57.697 83.931, 60.829 83.868, 64.156 83.482 C 70.033 82.800, 70.191 82.704, 69.684 80.140 C 69.397 78.688, 68.143 70.862, 66.897 62.750 C 65.652 54.638, 64.330 48, 63.961 48 C 63.592 48, 61.714 55.888, 59.787 65.529" stroke="none" fill="#fcfbfb" fill-rule="evenodd"/></svg>