<?xml version="1.0" standalone="yes"?>
<svg xmlns="http://www.w3.org/2000/svg" width="800" height="137">
<path style="fill:#010101; stroke:none;" d="M0 0L0 137L800 137L800 0L0 0z"/>
<path style="fill:#ffeb39; stroke:none;" d="M227 39L234 45L235 41L227 39z"/>
<path style="fill:#ffa901; stroke:none;" d="M229 39L230 40L229 39z"/>
<path style="fill:#fff806; stroke:none;" d="M234 40L235 41L234 40z"/>
<path style="fill:#ffa901; stroke:none;" d="M227 41L228 42L227 41z"/>
<path style="fill:#fff806; stroke:none;" d="M228 41L229 42L228 41M234.333 43.6667L234.667 44.3333L234.333 43.6667z"/>
<path style="fill:#ffeb39; stroke:none;" d="M243 60L242 47C234.44 46.8723 227.258 45.2662 220.005 48.3133C218.155 49.0901 212.745 51.4504 215.086 54.3573C217.196 56.9766 223.318 52.2922 226 52.1281C232.865 51.708 236.849 58.3233 243 60z"/>
<path style="fill:#fff806; stroke:none;" d="M230 46L231 47L230 46M237 46L238 47L237 46M107 47L108 48L107 47z"/>
<path style="fill:#ffeb39; stroke:none;" d="M105 48L111 55L111.946 73L109 86C105.142 87.1291 101.402 92.0283 107.134 94.0617C112.506 95.9675 117.774 94.0729 123 93L117.198 82.0617L115 58C120.375 63.6656 122.636 76.4964 125.177 84C126.355 87.4812 126.972 92.3219 131.029 93.7438C135.138 95.1844 137.089 90.1632 137.246 86.9992C137.688 78.0828 134.552 67.6619 136.282 59.0046C137.013 55.3469 141.586 53.8953 142.083 50.8457C142.953 45.5007 127.914 47.2005 125 47C124.284 52.0572 127.765 53.1174 129.973 57.1698C132.779 62.3199 131.182 70.5766 128 75C126.306 62.4944 119.389 45.3302 105 48z"/>
<path style="fill:#fff806; stroke:none;" d="M115 47L116 48L115 47M126 47L127 48L126 47M138 47L138 48L141 48L138 47M221 47L222 48L221 47M238.667 47.3333L239.333 47.6667L238.667 47.3333z"/>
<path style="fill:#ffeb39; stroke:none;" d="M333 47L337 50L343.377 62L346 78L333 79L333 82L343 80C340.602 88.9147 332.615 88.3219 325 88L316 71C313.647 77.2954 314.448 91.4143 324 90C325.415 98.5529 337.387 98.2604 342.906 93.6057C350.954 86.8174 352.778 70.5855 349.66 61C348.083 56.1487 343.032 46.059 337 50L333 47z"/>
<path style="fill:#fff806; stroke:none;" d="M336 47L337 48L336 47M339 47L340 48L339 47M473 47L474 48L473 47z"/>
<path style="fill:#ffeb39; stroke:none;" d="M473 48C476.427 56.3861 485.297 60.0961 484.817 71C484.637 75.0934 482.228 83.2803 479.413 86.3164C477.824 88.0304 472.379 90.1972 474.176 93.4012C476.305 97.1973 490.1 94.6745 494 95L487 106L501 106L498 90C485.729 88.3214 489 74.2453 489 65C493.564 67.5533 494.584 70.9556 495 76L497 76L497 66L505 65C503.241 58.988 493.799 60.7888 489 62C489.528 55.168 497.285 56.2326 498.079 51C499.069 44.4707 476.623 46.929 473 48z"/>
<path style="fill:#fff806; stroke:none;" d="M534 47L533 49L534 47z"/>
<path style="fill:#ffeb39; stroke:none;" d="M557 75C548.876 73.1669 550.421 83.034 543.957 85.3819C526.519 91.7161 532.848 62.5065 533 56L535 58L536 58C546.112 52.6379 547.127 64.705 556 65C557.532 40.6052 528.486 42.8998 525.3 65C523.503 77.4682 534.481 108.564 551.582 92.4275C556.273 88.0005 555.63 80.7514 557 75z"/>
<path style="fill:#fff806; stroke:none;" d="M543 47L544 48L543 47M578 47L579 48L578 47z"/>
<path style="fill:#ffeb39; stroke:none;" d="M578 48C581.427 56.386 590.297 60.0961 589.817 71C589.637 75.0934 587.228 83.2803 584.413 86.3164C582.824 88.0304 577.379 90.1972 579.176 93.4012C581.305 97.1973 595.1 94.6745 599 95L592 106L607 105L602 101L604 91C591.343 86.339 594 76.6981 594 65C598.564 67.5532 599.584 70.9556 600 76L602 76L602 66L610 65C608.241 58.988 598.799 60.7888 594 62C594.528 55.1635 602.266 56.2498 603.079 51.0247C604.085 44.5531 581.533 46.9556 578 48z"/>
<path style="fill:#fff806; stroke:none;" d="M600 47L601 48L600 47z"/>
<path style="fill:#ff0101; stroke:none;" d="M65 48L66 49L65 48z"/>
<path style="fill:#ffeb39; stroke:none;" d="M66 48L67 53L63 63L66 63L65 60L67 53C71.7433 57.1643 78.7442 68.0396 73.1512 74.1713C67.7347 80.1095 66.0112 69.1594 66 66C58.5371 68.2158 59.7849 76.0792 56.6867 81.9105C54.6885 85.6716 51.4274 87.8347 50 92L47 91C52.1605 99.1775 67.6793 96.5235 69 87L64 87L73 84L70 94L93 94L95 90L95 89L85.8441 80.9599L77 64C78.0194 57.1025 73.0764 49.1855 66 48z"/>
<path style="fill:#fff806; stroke:none;" d="M116 48L117 49L116 48M142 48L143 49L142 48z"/>
<path style="fill:#ffeb39; stroke:none;" d="M170 48L170 60L171 60L172 54L181 65C179.828 67.5471 176.994 79.0697 172.514 74.2886C170.946 72.6151 171.362 66.3411 168.079 66.9213C165.603 67.3591 164.833 71.0714 164.093 73.0008C161.378 80.0826 156.711 85.2344 154 92L151 91C156.469 98.6877 171.04 96.3713 174 88L168 87L177 84L174 94C181.567 96.2368 196.517 97.2031 199 88C183.815 80.7404 186.835 50.576 170 48z"/>
<path style="fill:#fff806; stroke:none;" d="M219 48L220 49L219 48z"/>
<path style="fill:#ffa901; stroke:none;" d="M242 48L243 49L242 48z"/>
<path style="fill:#ffeb39; stroke:none;" d="M326 48L332 51L332 48L326 48M369 50L369 52L377 60L377 53C382.157 53 392.871 50.9148 395.972 56.1481C397.601 58.8969 397.096 62.9428 398 66L400 66L401 48L369 50M421 50L421 52L429 60L430 53C441.428 53 449.883 52.1023 450 66C454.995 62.7616 453 53.383 453 48L421 50z"/>
<path style="fill:#fff806; stroke:none;" d="M498 48L499 49L498 48M550 48L551 49L550 48z"/>
<path style="fill:#ffa901; stroke:none;" d="M603 48L604 49L603 48z"/>
<path style="fill:#ffeb39; stroke:none;" d="M641 48L639 63L643 54L652 65L647 77L646 77L642 75C641.985 70.8496 642.387 67.4559 638 66C634.58 73.6379 632.218 89.7723 622 91C627.303 98.4536 642.403 96.6406 645 88L639 87C646.631 79.8038 647.55 87.7513 645 94C652.641 96.2587 667.484 97.3274 670 88L655 69C656.223 61.3554 648.942 49.2144 641 48M681 51L703 53L703 48C697.042 48 684.551 45.5234 681 51z"/>
<path style="fill:#fff806; stroke:none;" d="M65 49L66 50L65 49z"/>
<path style="fill:#ffa901; stroke:none;" d="M70 49L71 50L70 49z"/>
<path style="fill:#fff806; stroke:none;" d="M217 49L218 50L217 49M242 49L243 50L242 49M370 49L371 50L370 49M422 49L423 50L422 49M553 49L554 50L553 49M703 49L704 50L703 49M71 50L72 51L71 50M117 50L118 51L117 50M175 50L176 51L175 50z"/>
<path style="fill:#ffa901; stroke:none;" d="M322 50L323 51L322 50z"/>
<path style="fill:#ffeb39; stroke:none;" d="M323 50L322 53L325 51L323 50z"/>
<path style="fill:#fff806; stroke:none;" d="M326 50L327 51L326 50M336 50L337 51L336 50M531 50L532 51L531 50M641 50L642 51L641 50M646 50L647 51L646 50z"/>
<path style="fill:#ffa901; stroke:none;" d="M703 50L704 51L703 50z"/>
<path style="fill:#fff806; stroke:none;" d="M72 51L73 52L72 51M105 51L106 52L105 51M124 51L125 52L124 51M344 51L345 52L344 51z"/>
<path style="fill:#ffa901; stroke:none;" d="M474 51L475 52L474 51z"/>
<path style="fill:#fff806; stroke:none;" d="M530 51L531 52L530 51M554.333 51.6667L554.667 52.3333L554.333 51.6667M579 51L580 52L579 51M683 51L684 52L683 51z"/>
<path style="fill:#ff0101; stroke:none;" d="M703 51L704 52L703 51z"/>
<path style="fill:#fff806; stroke:none;" d="M66 52L67 53L66 52M73 52L74 53L73 52M118 52L119 53L118 52M125 52L126 53L125 52M177 52L178 53L177 52M223 52L224 53L223 52M324 52L325 53L324 52M345 52L346 53L345 52M369 52L370 53L369 52z"/>
<path style="fill:#ffa901; stroke:none;" d="M421 52L422 53L421 52z"/>
<path style="fill:#fff806; stroke:none;" d="M498 52L499 53L498 52M603 52L604 53L603 52M648 52L649 53L648 52M67.3333 53.6667L67.6667 54.3333L67.3333 53.6667M74 53L75 54L74 53M138 53L139 54L138 53M169 53L170 54L169 53z"/>
<path style="fill:#ffa901; stroke:none;" d="M171 53L172 54L171 53z"/>
<path style="fill:#fff806; stroke:none;" d="M178 53L179 54L178 53z"/>
<path style="fill:#ffa901; stroke:none;" d="M233 53L234 54L233 53z"/>
<path style="fill:#fff806; stroke:none;" d="M338 53L339 54L338 53z"/>
<path style="fill:#ffeb39; stroke:none;" d="M349 53L351 57L349 53z"/>
<path style="fill:#fff806; stroke:none;" d="M350 53L351 54L350 53M377 53L378 54L377 53M394 53L395 54L394 53M497 53L498 54L497 53M602 53L603 54L602 53M640 53L641 54L640 53z"/>
<path style="fill:#ffa901; stroke:none;" d="M642 53L643 54L642 53z"/>
<path style="fill:#fff806; stroke:none;" d="M695 53L696 54L695 53M69 54L70 55L69 54M75 54L76 55L75 54M120 54L121 55L120 54M179 54L180 55L179 54M219 54L220 55L219 54z"/>
<path style="fill:#ffeb39; stroke:none;" d="M318 54L315 63C320.652 62.3513 323.989 57.3349 318 54z"/>
<path style="fill:#fff806; stroke:none;" d="M320 54L321 55L320 54M348 54L349 55L348 54M395 54L396 55L395 54M447 54L448 55L447 54z"/>
<path style="fill:#ffa901; stroke:none;" d="M478 54L479 55L478 54z"/>
<path style="fill:#fff806; stroke:none;" d="M495 54L496 55L495 54M528 54L529 55L528 54M583 54L584 55L583 54M600 54L601 55L600 54M688 54L689 55L688 54M70 55L71 56L70 55M110.333 55.6667L110.667 56.3333L110.333 55.6667M137 55L138 56L137 55M174 55L175 56L174 55M214 55L215 56L214 55M218 55L219 56L218 55M321 55L322 56L321 55M346 55L347 56L346 55z"/>
<path style="fill:#ffa901; stroke:none;" d="M430.333 55.6667L430.667 56.3333L430.333 55.6667z"/>
<path style="fill:#fff806; stroke:none;" d="M480 55L481 56L480 55M585 55L586 56L585 55M136 56L136 59L137 59L136 56z"/>
<path style="fill:#ff0101; stroke:none;" d="M243 56L244 57L243 56z"/>
<path style="fill:#fff806; stroke:none;" d="M317 56L318 57L317 56M348 56L349 57L348 56M527 56L528 57L527 56M533 56L534 57L533 56M537 56L538 57L537 56M690.667 56.3333L691.333 56.6667L690.667 56.3333z"/>
<path style="fill:#ffeb39; stroke:none;" d="M711 77C710.557 79.2741 710.29 81.8268 709.297 83.9429C706.885 89.0816 699.904 89.2141 696.588 84.8765C693.093 80.3039 693.834 73.3696 694.039 68.0008C694.142 65.2675 694.941 62.9907 693 61L693 56C687.091 60.2453 690.425 68.5224 690.049 74.7145C689.853 77.9552 689.43 83.1247 687.397 85.7253C685.81 87.7549 679.65 89.4279 680.752 92.787C681.705 95.6939 686.708 94.9953 689 95C695.47 95.0133 708.374 97.4305 713.721 93.2577C718.987 89.1474 716.981 78.8889 711 77z"/>
<path style="fill:#fff806; stroke:none;" d="M693 56L694 57L693 56M76 57L77 58L76 57M180 57L181 58L180 57z"/>
<path style="fill:#ffa901; stroke:none;" d="M237 57L238 58L237 57z"/>
<path style="fill:#fff806; stroke:none;" d="M243 57L243 60L244 60L243 57M341 57L342 58L341 57z"/>
<path style="fill:#ff0101; stroke:none;" d="M348 57L349 58L348 57z"/>
<path style="fill:#fff806; stroke:none;" d="M430 57L431 58L430 57z"/>
<path style="fill:#ffa901; stroke:none;" d="M534 57L535 58L534 57z"/>
<path style="fill:#fff806; stroke:none;" d="M536 57L537 58L536 57M651 57L652 58L651 57M67 58L68 59L67 58M71 58L72 59L71 58M116 58L117 59L116 58M121 58L122 59L121 58M175 58L176 59L175 58M181 58L182 59L181 58z"/>
<path style="fill:#ffeb39; stroke:none;" d="M226 58L226 62L227 62L228 58L226 58z"/>
<path style="fill:#fff806; stroke:none;" d="M228 58L228 61L229 61L228 58M238 58L239 59L238 58M547 58L548 59L547 58z"/>
<path style="fill:#ffa901; stroke:none;" d="M555 58L556 59L555 58z"/>
<path style="fill:#fff806; stroke:none;" d="M646 58L647 59L646 58M652 58L653 59L652 58M77.3333 59.6667L77.6667 60.3333L77.3333 59.6667M169 59L168 61L170 61L169 59M171 59L172 60L171 59M214.667 59.3333L215.333 59.6667L214.667 59.3333z"/>
<path style="fill:#ffeb39; stroke:none;" d="M220 67L241 81L241 82C228.763 94.1507 227.457 85.3426 214 82C214 84.7338 213.246 89.0913 215.028 91.4012C221.743 100.108 241.029 98.5236 243.525 87.0895C245.035 80.1779 239.968 60.8137 230 68L229 68L220 66C218.624 53.9545 209.702 66.5166 220 67z"/>
<path style="fill:#ffa901; stroke:none;" d="M217 59L218 60L217 59z"/>
<path style="fill:#fff806; stroke:none;" d="M218 59L219 60L218 59M239 59L240 60L239 59z"/>
<path style="fill:#ff0101; stroke:none;" d="M315 59L316 60L315 59z"/>
<path style="fill:#fff806; stroke:none;" d="M316 59L317 60L316 59z"/>
<path style="fill:#ffa901; stroke:none;" d="M321 59L322 60L321 59z"/>
<path style="fill:#fff806; stroke:none;" d="M349 59L350 60L349 59M374 59L375 60L374 59M377 59L378 60L377 59z"/>
<path style="fill:#ffa901; stroke:none;" d="M426 59L427 60L426 59M429 59L430 60L429 59z"/>
<path style="fill:#fff806; stroke:none;" d="M642 59L643 60L642 59M63 60L64 61L63 60M65 60L66 61L65 60M219.333 60.6667L219.667 61.3333L219.333 60.6667M73 61L74 62L73 61M123 61L124 62L123 61z"/>
<path style="fill:#ffeb39; stroke:none;" d="M168 61L168 63L170 63L170 61L168 61z"/>
<path style="fill:#ff0101; stroke:none;" d="M177 61L178 62L177 61z"/>
<path style="fill:#fff806; stroke:none;" d="M182.333 61.6667L182.667 62.3333L182.333 61.6667M227 61L228 62L227 61M343 61L344 62L343 61z"/>
<path style="fill:#ffeb39; stroke:none;" d="M373 61L377 64L373 61M387 61L385 67L373 67C373.509 76.7003 375.309 87.2793 364 90L364 95L388 95C386.36 89.2598 382.571 88.0626 377 88C377.295 85.359 376.528 72.9369 382.571 76.0602C386.148 77.9088 384.541 82.5214 389 84C390.581 77.3574 391.954 66.2868 387 61z"/>
<path style="fill:#fff806; stroke:none;" d="M388 61L389 62L388 61z"/>
<path style="fill:#ffa901; stroke:none;" d="M425 61L426 62L425 61z"/>
<path style="fill:#ffeb39; stroke:none;" d="M426 61L426 64L429 64L429 61L426 61z"/>
<path style="fill:#fff806; stroke:none;" d="M429.333 61.6667L429.667 62.3333L429.333 61.6667z"/>
<path style="fill:#ffeb39; stroke:none;" d="M439 61C436.097 67.1903 432.128 66.0162 426 66C425.257 75.4156 427.583 87.9003 416 90L416 95L440 95C438.361 89.2293 434.609 88.0663 429 88C429.754 85.449 429.516 73.2226 434.752 75.9213C437.901 77.544 437.578 82.0868 441 84L441 61L439 61z"/>
<path style="fill:#fff806; stroke:none;" d="M490 61L491 62L490 61M502 61L503 62L502 61M556.333 61.6667L556.667 62.3333L556.333 61.6667M607 61L608 62L607 61M641.333 61.6667L641.667 62.3333L641.333 61.6667M653 61L654 62L653 61M377 62L378 63L377 62M389.333 62.6667L389.667 63.3333L389.333 62.6667M425.333 62.6667L425.667 63.3333L425.333 62.6667z"/>
<path style="fill:#ffa901; stroke:none;" d="M441 62L442 63L441 62z"/>
<path style="fill:#fff806; stroke:none;" d="M532 62L533 63L532 62z"/>
<path style="fill:#ffa901; stroke:none;" d="M653 62L654 63L653 62z"/>
<path style="fill:#fff806; stroke:none;" d="M77 63L78 64L77 63M136.333 63.6667L136.667 64.3333L136.333 63.6667z"/>
<path style="fill:#ffa901; stroke:none;" d="M315.667 63.3333L316.333 63.6667L315.667 63.3333z"/>
<path style="fill:#fff806; stroke:none;" d="M350.333 63.6667L350.667 64.3333L350.333 63.6667M373 63L374 64L373 63M525 63L526 64L525 63M549 63L550 64L549 63M610 63L611 64L610 63M694 63L695 64L694 63M74 64L75 65L74 64M79 64L80 65L79 64M118 64L119 65L118 64M124 64L125 65L124 64M178 64L179 65L178 64M214 64L215 65L214 64z"/>
<path style="fill:#ffeb39; stroke:none;" d="M314 64L315 68L318 64L314 64z"/>
<path style="fill:#fff806; stroke:none;" d="M531 64L532 65L531 64M649 64L650 65L649 64M75 65L76 66L75 65M125 65L126 66L125 65z"/>
<path style="fill:#ffa901; stroke:none;" d="M136 65L137 66L136 65z"/>
<path style="fill:#fff806; stroke:none;" d="M179.667 65.3333L180.333 65.6667L179.667 65.3333z"/>
<path style="fill:#ffa901; stroke:none;" d="M184 65L185 66L184 65z"/>
<path style="fill:#ff0101; stroke:none;" d="M390.333 65.6667L390.667 66.3333L390.333 65.6667z"/>
<path style="fill:#fff806; stroke:none;" d="M397 65L398 66L397 65M437 65L438 66L437 65M442 65L442 68L443 68L442 65z"/>
<path style="fill:#ff0101; stroke:none;" d="M452 65L453 66L452 65z"/>
<path style="fill:#fff806; stroke:none;" d="M483 65L484 66L483 65M500 65L501 66L500 65M553 65L554 66L553 65M588 65L589 66L588 65M650 65L652 67L652 65L650 65M691.667 65.3333L692.333 65.6667L691.667 65.3333z"/>
<path style="fill:#ff0101; stroke:none;" d="M62 66L63 67L62 66z"/>
<path style="fill:#fff806; stroke:none;" d="M66 66L66 75L67 75L66 66M170 66L171 67L170 66M184 66L185 67L184 66M228 66L229 67L228 66M230 66L231 67L230 66M235 66L236 67L235 66M317 66L318 67L317 66M373 66L374 67L373 66z"/>
<path style="fill:#ffa901; stroke:none;" d="M384 66L385 67L384 66z"/>
<path style="fill:#fff806; stroke:none;" d="M425.333 66.6667L425.667 67.3333L425.333 66.6667M436 66L437 67L436 66M492 66L493 67L492 66M497 66L497 75L498 75L497 66M602 66L602 76L603 76L602 66M641 66L642 67L641 66M694 66L694 76L695 76L694 66M75 67L76 68L75 67M126 67L127 68L126 67M136.333 67.6667L136.667 68.3333L136.333 67.6667M217 67L218 68L217 67M219 67L220 68L219 67M314 67L315 68L314 67M316 67L317 68L316 67M344.333 67.6667L344.667 68.3333L344.333 67.6667M390 67L390 79L391 79L390 67z"/>
<path style="fill:#ffa901; stroke:none;" d="M493 67L494 68L493 67z"/>
<path style="fill:#fff806; stroke:none;" d="M530 67L531 68L530 67M637 67L638 68L637 67M80 68L81 69L80 68M165 68L166 69L165 68M236 68L237 69L236 68z"/>
<path style="fill:#ffa901; stroke:none;" d="M442 68L443 69L442 68z"/>
<path style="fill:#fff806; stroke:none;" d="M529 68L530 69L529 68M636 68L637 69L636 68M655 68L656 69L655 68M185 69L186 70L185 69M220 69L221 70L220 69M238 69L239 70L238 69M442 69L442 80L443 80L442 69M74 70L75 71L74 70M178 70L179 71L178 70M221 70L222 71L221 70M425 70L426 71L425 70M649 70L650 71L649 70M127 71L128 72L127 71M223 71L224 72L223 71M241 71L242 72L241 71M317 71L318 72L317 71M530 71L531 72L530 71z"/>
<path style="fill:#ffa901; stroke:none;" d="M82 72L83 73L82 72z"/>
<path style="fill:#fff806; stroke:none;" d="M164 72L165 73L164 72z"/>
<path style="fill:#ffa901; stroke:none;" d="M178 72L179 73L178 72M186 72L187 73L186 72z"/>
<path style="fill:#fff806; stroke:none;" d="M242 72L243 73L242 72M318 72L319 73L318 72M635 72L636 73L635 72M649.333 72.6667L649.667 73.3333L649.333 72.6667M657 72L658 73L657 72M59 73L60 74L59 73M74 73L75 74L74 73M82.3333 73.6667L82.6667 74.3333L82.3333 73.6667M178 73L179 74L178 73z"/>
<path style="fill:#ffa901; stroke:none;" d="M230 73L231 74L230 73z"/>
<path style="fill:#fff806; stroke:none;" d="M350 73L350 76L351 76L350 73M128 74L129 75L128 74z"/>
<path style="fill:#ff0101; stroke:none;" d="M243 74L244 75L243 74z"/>
<path style="fill:#fff806; stroke:none;" d="M319 74L319 77L320 77L319 74M344 74L344 78L345 78L344 74M434 74L435 75L434 74M551 74L552 75L551 74M68.6667 75.3333L69.3333 75.6667L68.6667 75.3333M72 75L73 76L72 75z"/>
<path style="fill:#ffa901; stroke:none;" d="M173 75L174 76L173 75z"/>
<path style="fill:#fff806; stroke:none;" d="M176 75L177 76L176 75M187 75L188 76L187 75M235 75L236 76L235 75M314 75L315 76L314 75M383 75L384 76L383 75M435 75L436 76L435 75M483 75L484 76L483 75z"/>
<path style="fill:#ff0101; stroke:none;" d="M497 75L498 76L497 75z"/>
<path style="fill:#ffa901; stroke:none;" d="M588 75L589 76L588 75M647 75L648 76L647 75M658 75L659 76L658 75z"/>
<path style="fill:#fff806; stroke:none;" d="M70 76L71 77L70 76z"/>
<path style="fill:#ffa901; stroke:none;" d="M71 76L72 77L71 76M116 76L117 77L116 76z"/>
<path style="fill:#fff806; stroke:none;" d="M162 76L163 77L162 76z"/>
<path style="fill:#ff0101; stroke:none;" d="M175 76L176 77L175 76z"/>
<path style="fill:#fff806; stroke:none;" d="M210.333 76.6667L210.667 77.3333L210.333 76.6667z"/>
<path style="fill:#ffeb39; stroke:none;" d="M211 76L210 80L217 80L211 76z"/>
<path style="fill:#fff806; stroke:none;" d="M213 76L214 77L213 76M237 76L238 77L237 76M436 76L437 77L436 76M496 76L497 77L496 76M550 76L551 77L550 76z"/>
<path style="fill:#ffa901; stroke:none;" d="M556 76L556 83L557 83L556 76z"/>
<path style="fill:#fff806; stroke:none;" d="M601 76L602 77L601 76M659 76L660 77L659 76M712 76L713 77L712 76M122 77L123 78L122 77M188 77L189 78L188 77M214 77L215 78L214 77z"/>
<path style="fill:#010101; stroke:none;" d="M345 77L346 78L345 77z"/>
<path style="fill:#fff806; stroke:none;" d="M377 77L377 85L378 85L377 77M531 77L532 78L531 77M689 77L690 78L689 77M714 77L715 78L714 77M84 78L85 79L84 78M110 78L111 79L110 78M216 78L217 79L216 78M231 79L231 80L234 80L231 79M244 78L244 82L245 82L244 78M319 78L320 79L319 78z"/>
<path style="fill:#ffeb39; stroke:none;" d="M328 78L331 81L328 78z"/>
<path style="fill:#fff806; stroke:none;" d="M336 78L337 79L336 78M437 78L438 79L437 78z"/>
<path style="fill:#ffa901; stroke:none;" d="M532 78L533 79L532 78z"/>
<path style="fill:#fff806; stroke:none;" d="M85 79L86 80L85 79z"/>
<path style="fill:#ffa901; stroke:none;" d="M189 79L190 80L189 79z"/>
<path style="fill:#fff806; stroke:none;" d="M217 79L218 80L217 79z"/>
<path style="fill:#ffeb39; stroke:none;" d="M231 81L234 81L233 79L231 81z"/>
<path style="fill:#fff806; stroke:none;" d="M331 79L332 80L331 79z"/>
<path style="fill:#ffa901; stroke:none;" d="M437 79L438 80L437 79z"/>
<path style="fill:#fff806; stroke:none;" d="M549 79L550 80L549 79M660 79L661 80L660 79M694 79L695 80L694 79z"/>
<path style="fill:#ffa901; stroke:none;" d="M715 79L716 80L715 79z"/>
<path style="fill:#fff806; stroke:none;" d="M116 80L117 81L116 80M210 80L211 81L210 80M216 80L217 81L216 80M239 80L240 81L239 80M320 80L321 81L320 80M328 80L329 81L328 80M332.333 80.6667L332.667 81.3333L332.333 80.6667M342 80L343 81L342 80z"/>
<path style="fill:#ffeb39; stroke:none;" d="M227 81L230 84L227 81z"/>
<path style="fill:#fff806; stroke:none;" d="M228 81L229 82L228 81M231 81L232 82L231 81M240 81L241 82L240 81M86 82L87 83L86 82M117 82L117 85L118 85L117 82z"/>
<path style="fill:#ffa901; stroke:none;" d="M137 82L138 83L137 82M161 82L162 83L161 82z"/>
<path style="fill:#fff806; stroke:none;" d="M190 82L191 83L190 82M389.333 82.6667L389.667 83.3333L389.333 82.6667M437 82L438 83L437 82M527 82L528 83L527 82M534 82L535 83L534 82M56 83L57 84L56 83z"/>
<path style="fill:#ffa901; stroke:none;" d="M86 83L87 84L86 83z"/>
<path style="fill:#fff806; stroke:none;" d="M137.333 83.6667L137.667 84.3333L137.333 83.6667M217 83L218 84L217 83M349 83L350 84L349 83M438 83L439 84L438 83M441 83L442 84L441 83M556 83L557 84L556 83M632 83L633 84L632 83M716.333 83.6667L716.667 84.3333L716.333 83.6667M55 84L56 85L55 84M87 84L88 85L87 84M159 84L160 85L159 84z"/>
<path style="fill:#ffa901; stroke:none;" d="M169 84L170 85L169 84z"/>
<path style="fill:#fff806; stroke:none;" d="M191 84L192 85L191 84M220 84L221 85L220 84M243 84L244 85L243 84z"/>
<path style="fill:#ffa901; stroke:none;" d="M323 84L324 85L323 84z"/>
<path style="fill:#fff806; stroke:none;" d="M535 84L536 85L535 84z"/>
<path style="fill:#ff0101; stroke:none;" d="M630 84L631 85L630 84z"/>
<path style="fill:#ffa901; stroke:none;" d="M640 84L641 85L640 84z"/>
<path style="fill:#010101; stroke:none;" d="M639 87L645 87L645 91L648 84L639 87z"/>
<path style="fill:#fff806; stroke:none;" d="M662 84L663 85L662 84M695 84L696 85L695 84M709 84L710 85L709 84M64 85L65 86L64 85M89 85L90 86L89 85M119 85L120 86L119 85z"/>
<path style="fill:#ffa901; stroke:none;" d="M137 85L138 86L137 85z"/>
<path style="fill:#fff806; stroke:none;" d="M158 85L159 86L158 85M193 85L194 86L193 85M221 85L222 86L221 85z"/>
<path style="fill:#ffa901; stroke:none;" d="M316 85L317 86L316 85M538 85L539 86L538 85z"/>
<path style="fill:#fff806; stroke:none;" d="M545 85L546 86L545 85M629 85L630 86L629 85M648 85L649 86L648 85M664 85L665 86L664 85M90 86L91 87L90 86M137 86L138 87L137 86M222 86L223 87L222 86M244 86L245 87L244 86M338 86L339 87L338 86M372 86L373 87L372 86z"/>
<path style="fill:#ffa901; stroke:none;" d="M377 86L378 87L377 86z"/>
<path style="fill:#fff806; stroke:none;" d="M489 86L490 87L489 86z"/>
<path style="fill:#ff0101; stroke:none;" d="M528 86L529 87L528 86z"/>
<path style="fill:#fff806; stroke:none;" d="M594 86L595 87L594 86z"/>
<path style="fill:#ffa901; stroke:none;" d="M648 86L649 87L648 86z"/>
<path style="fill:#fff806; stroke:none;" d="M666 86L667 87L666 86M708 86L709 87L708 86M716 86L717 87L716 86M93 87L94 88L93 87z"/>
<path style="fill:#ffa901; stroke:none;" d="M104 87L105 88L104 87z"/>
<path style="fill:#fff806; stroke:none;" d="M173 87L174 88L173 87M177 87L178 88L177 87M325 87L326 88L325 87M336 87L337 88L336 87M371 87L372 88L371 87z"/>
<path style="fill:#ff0101; stroke:none;" d="M423 87L424 88L423 87z"/>
<path style="fill:#fff806; stroke:none;" d="M478 87L479 88L478 87M491 87L492 88L491 87M554.333 87.6667L554.667 88.3333L554.333 87.6667M583 87L584 88L583 87M596 87L597 88L596 87M644 87L645 88L644 87M648 87L649 88L648 87M686 87L687 88L686 87M707 87L708 88L707 87M69 88L70 89L69 88M94 88L95 89L94 88M103 88L104 89L103 88M123 88L124 89L123 88M137 88L138 89L137 88z"/>
<path style="fill:#ffa901; stroke:none;" d="M234 88L235 89L234 88z"/>
<path style="fill:#fff806; stroke:none;" d="M243 88L244 89L243 88M318 88L319 89L318 88M330 88L331 89L330 88M597 88L598 89L597 88M50 89L51 90L50 89z"/>
<path style="fill:#ffa901; stroke:none;" d="M69 89L70 90L69 89M123 89L124 90L123 89z"/>
<path style="fill:#fff806; stroke:none;" d="M173 89L174 90L173 89M346 89L347 90L346 89M384 89L385 90L384 89M419 89L420 90L419 89z"/>
<path style="fill:#ffa901; stroke:none;" d="M493 89L494 90L493 89z"/>
<path style="fill:#fff806; stroke:none;" d="M530 89L531 90L530 89z"/>
<path style="fill:#ffa901; stroke:none;" d="M598 89L599 90L598 89z"/>
<path style="fill:#fff806; stroke:none;" d="M626 89L627 90L626 89M716 89L717 90L716 89M68 90L69 91L68 90M71 90L72 91L71 90M94 90L95 91L94 90z"/>
<path style="fill:#ffa901; stroke:none;" d="M103 90L104 91L103 90z"/>
<path style="fill:#fff806; stroke:none;" d="M123.333 90.6667L123.667 91.3333L123.333 90.6667z"/>
<path style="fill:#ff0101; stroke:none;" d="M175 90L176 91L175 90z"/>
<path style="fill:#fff806; stroke:none;" d="M198 90L199 91L198 90z"/>
<path style="fill:#ffa901; stroke:none;" d="M227 90L228 91L227 90z"/>
<path style="fill:#fff806; stroke:none;" d="M228 90L229 91L228 90z"/>
<path style="fill:#ffa901; stroke:none;" d="M229 90L230 91L229 90z"/>
<path style="fill:#fff806; stroke:none;" d="M242 90L243 91L242 90M386 90L387 91L386 90M438 90L439 91L438 90M473 90L474 91L473 90M498 90L498 93L499 93L498 90z"/>
<path style="fill:#ffa901; stroke:none;" d="M553 90L554 91L553 90z"/>
<path style="fill:#fff806; stroke:none;" d="M578 90L579 91L578 90M603 90L604 91L603 90M644 90L645 91L644 90M669.333 90.6667L669.667 91.3333L669.333 90.6667M49 91L50 92L49 91M70 91L71 92L70 91M93.3333 91.6667L93.6667 92.3333L93.3333 91.6667M136 91L137 92L136 91M153 91L154 92L153 91z"/>
<path style="fill:#ffa901; stroke:none;" d="M174 91L175 92L174 91z"/>
<path style="fill:#fff806; stroke:none;" d="M387 91L388 92L387 91M439 91L440 92L439 91M624 91L625 92L624 91z"/>
<path style="fill:#ff0101; stroke:none;" d="M645 91L646 92L645 91z"/>
<path style="fill:#fff806; stroke:none;" d="M172.333 92.6667L172.667 93.3333L172.333 92.6667M214 92L215 93L214 92z"/>
<path style="fill:#ffa901; stroke:none;" d="M241 92L242 93L241 92z"/>
<path style="fill:#fff806; stroke:none;" d="M323 92L324 93L323 92M552 92L553 93L552 92M603 92L604 93L603 92M643.333 92.6667L643.667 93.3333L643.333 92.6667z"/>
<path style="fill:#ffa901; stroke:none;" d="M715 92L716 93L715 92z"/>
<path style="fill:#fff806; stroke:none;" d="M119 93L120 94L119 93M153 93L154 94L153 93M197 93L198 94L197 93M220 93L221 94L220 93z"/>
<path style="fill:#ffa901; stroke:none;" d="M240 93L241 94L240 93z"/>
<path style="fill:#fff806; stroke:none;" d="M497 93L497 101L498 101L497 93M550 93L551 94L550 93M624 93L625 94L624 93M668 93L669 94L668 93z"/>
<path style="fill:#ffa901; stroke:none;" d="M714 93L715 94L714 93z"/>
<path style="fill:#fff806; stroke:none;" d="M70 94L71 95L70 94M86.6667 94.3333L87.3333 94.6667L86.6667 94.3333M105 94L106 95L105 94M107 94L108 95L107 94M110 94L111 95L110 94M133 94L134 95L133 94M171 94L172 95L171 94M174 94L175 95L174 94M191 94L192 95L191 94z"/>
<path style="fill:#ffa901; stroke:none;" d="M221 94L222 95L221 94z"/>
<path style="fill:#fff806; stroke:none;" d="M239 94L240 95L239 94M367 94L368 95L367 94M419.667 94.3333L420.333 94.6667L419.667 94.3333M428 94L429 95L428 94z"/>
<path style="fill:#ffa901; stroke:none;" d="M488 94L489 95L488 94z"/>
<path style="fill:#fff806; stroke:none;" d="M593 94L594 95L593 94M642 94L643 95L642 94M645 94L646 95L645 94M712 94L713 95L712 94M223 95L224 96L223 95M237 95L238 96L237 95M327 95L328 96L327 95M340 95L341 96L340 95M493 95L494 96L493 95M226.667 96.3333L227.333 96.6667L226.667 96.3333M231 96L232 97L231 96M236 96L237 97L236 96M330 96L331 97L330 96M338 96L339 97L338 96M597 100L598 101L597 100M602 100L603 101L602 100M596 101L597 102L596 101M500 102L501 103L500 102M605 102L606 103L605 102M488 103L489 104L488 103M501.333 103.667L501.667 104.333L501.333 103.667z"/>
<path style="fill:#ffa901; stroke:none;" d="M606 103L607 104L606 103z"/>
</svg>
